<svg id="visual" viewBox="0 0 900 600" width="900" height="600" xmlns="http://www.w3.org/2000/svg" xmlns:xlink="http://www.w3.org/1999/xlink" version="1.1"><rect x="0" y="0" width="900" height="600" fill="#ffffff"></rect><defs><linearGradient id="grad1_0" x1="33.3%" y1="0%" x2="100%" y2="100%"><stop offset="20%" stop-color="#004e9a" stop-opacity="1"></stop><stop offset="80%" stop-color="#004e9a" stop-opacity="1"></stop></linearGradient></defs><defs><linearGradient id="grad1_1" x1="33.3%" y1="0%" x2="100%" y2="100%"><stop offset="20%" stop-color="#004e9a" stop-opacity="1"></stop><stop offset="80%" stop-color="#95a1cc" stop-opacity="1"></stop></linearGradient></defs><defs><linearGradient id="grad1_2" x1="33.3%" y1="0%" x2="100%" y2="100%"><stop offset="20%" stop-color="#ffffff" stop-opacity="1"></stop><stop offset="80%" stop-color="#95a1cc" stop-opacity="1"></stop></linearGradient></defs><defs><linearGradient id="grad2_0" x1="0%" y1="0%" x2="66.7%" y2="100%"><stop offset="20%" stop-color="#004e9a" stop-opacity="1"></stop><stop offset="80%" stop-color="#004e9a" stop-opacity="1"></stop></linearGradient></defs><defs><linearGradient id="grad2_1" x1="0%" y1="0%" x2="66.7%" y2="100%"><stop offset="20%" stop-color="#95a1cc" stop-opacity="1"></stop><stop offset="80%" stop-color="#004e9a" stop-opacity="1"></stop></linearGradient></defs><defs><linearGradient id="grad2_2" x1="0%" y1="0%" x2="66.7%" y2="100%"><stop offset="20%" stop-color="#95a1cc" stop-opacity="1"></stop><stop offset="80%" stop-color="#ffffff" stop-opacity="1"></stop></linearGradient></defs><g transform="translate(900, 0)"><path d="M0 432.7C-47.6 407.4 -95.2 382.1 -151.5 365.9C-207.9 349.7 -272.9 342.5 -305.9 305.9C-339 269.3 -339.9 203.2 -355.7 147.3C-371.5 91.4 -402.1 45.7 -432.7 0L0 0Z" fill="#cacfe6"></path><path d="M0 288.4C-31.7 271.6 -63.5 254.7 -101 243.9C-138.6 233.1 -182 228.4 -204 204C-226 179.6 -226.6 135.5 -237.1 98.2C-247.6 61 -268 30.5 -288.4 0L0 0Z" fill="#5d76b3"></path><path d="M0 144.2C-15.9 135.8 -31.7 127.4 -50.5 122C-69.3 116.6 -91 114.2 -102 102C-113 89.8 -113.3 67.7 -118.6 49.1C-123.8 30.5 -134 15.2 -144.2 0L0 0Z" fill="#004e9a"></path></g><g transform="translate(0, 600)"><path d="M0 -432.7C60.9 -431.2 121.8 -429.7 165.6 -399.7C209.3 -369.7 235.9 -311.2 266.6 -266.6C297.2 -222 332 -191.4 360.3 -149.2C388.7 -107.1 410.7 -53.6 432.7 0L0 0Z" fill="#cacfe6"></path><path d="M0 -288.4C40.6 -287.5 81.2 -286.5 110.4 -266.5C139.6 -246.5 157.3 -207.4 177.7 -177.7C198.2 -148 221.3 -127.6 240.2 -99.5C259.1 -71.4 273.8 -35.7 288.4 0L0 0Z" fill="#5d76b3"></path><path d="M0 -144.2C20.3 -143.7 40.6 -143.2 55.2 -133.2C69.8 -123.2 78.6 -103.7 88.9 -88.9C99.1 -74 110.7 -63.8 120.1 -49.7C129.6 -35.7 136.9 -17.9 144.2 0L0 0Z" fill="#004e9a"></path></g></svg>