<svg id="visual" viewBox="0 0 540 960" width="540" height="960" xmlns="http://www.w3.org/2000/svg" xmlns:xlink="http://www.w3.org/1999/xlink" version="1.1"><rect x="0" y="0" width="540" height="960" fill="#ffffff"></rect><defs><linearGradient id="grad1_0" x1="0%" y1="0%" x2="100%" y2="100%"><stop offset="30%" stop-color="#004e9a" stop-opacity="1"></stop><stop offset="70%" stop-color="#004e9a" stop-opacity="1"></stop></linearGradient></defs><defs><linearGradient id="grad1_1" x1="0%" y1="0%" x2="100%" y2="100%"><stop offset="30%" stop-color="#004e9a" stop-opacity="1"></stop><stop offset="70%" stop-color="#95a1cc" stop-opacity="1"></stop></linearGradient></defs><defs><linearGradient id="grad1_2" x1="0%" y1="0%" x2="100%" y2="100%"><stop offset="30%" stop-color="#ffffff" stop-opacity="1"></stop><stop offset="70%" stop-color="#95a1cc" stop-opacity="1"></stop></linearGradient></defs><defs><linearGradient id="grad2_0" x1="0%" y1="0%" x2="100%" y2="100%"><stop offset="30%" stop-color="#004e9a" stop-opacity="1"></stop><stop offset="70%" stop-color="#004e9a" stop-opacity="1"></stop></linearGradient></defs><defs><linearGradient id="grad2_1" x1="0%" y1="0%" x2="100%" y2="100%"><stop offset="30%" stop-color="#95a1cc" stop-opacity="1"></stop><stop offset="70%" stop-color="#004e9a" stop-opacity="1"></stop></linearGradient></defs><defs><linearGradient id="grad2_2" x1="0%" y1="0%" x2="100%" y2="100%"><stop offset="30%" stop-color="#95a1cc" stop-opacity="1"></stop><stop offset="70%" stop-color="#ffffff" stop-opacity="1"></stop></linearGradient></defs><g transform="translate(540, 0)"><path d="M0 486C-45.3 435.8 -90.5 385.6 -153.1 369.6C-215.6 353.5 -295.5 371.6 -343.7 343.7C-391.8 315.7 -408.4 241.7 -426.8 176.8C-445.3 111.9 -465.6 55.9 -486 0L0 0Z" fill="#cacfe6"></path><path d="M0 324C-30.2 290.5 -60.3 257.1 -102 246.4C-143.7 235.7 -197 247.7 -229.1 229.1C-261.2 210.5 -272.3 161.2 -284.6 117.9C-296.9 74.6 -310.4 37.3 -324 0L0 0Z" fill="#5d76b3"></path><path d="M0 162C-15.1 145.3 -30.2 128.5 -51 123.2C-71.9 117.8 -98.5 123.9 -114.6 114.6C-130.6 105.2 -136.1 80.6 -142.3 58.9C-148.4 37.3 -155.2 18.6 -162 0L0 0Z" fill="#004e9a"></path></g><g transform="translate(0, 960)"><path d="M0 -486C56.3 -467 112.6 -448.1 177.9 -429.6C243.3 -411.1 317.6 -393.2 343.7 -343.7C369.7 -294.1 347.4 -212.9 363.1 -150.4C378.8 -87.9 432.4 -43.9 486 0L0 0Z" fill="#cacfe6"></path><path d="M0 -324C37.5 -311.4 75.1 -298.7 118.6 -286.4C162.2 -274.1 211.7 -262.1 229.1 -229.1C246.5 -196.1 231.6 -142 242.1 -100.3C252.5 -58.6 288.3 -29.3 324 0L0 0Z" fill="#5d76b3"></path><path d="M0 -162C18.8 -155.7 37.5 -149.4 59.3 -143.2C81.1 -137 105.9 -131.1 114.6 -114.6C123.2 -98 115.8 -71 121 -50.1C126.3 -29.3 144.1 -14.6 162 0L0 0Z" fill="#004e9a"></path></g></svg>