<svg id="svg" version="1.1" xmlns="http://www.w3.org/2000/svg" xmlns:xlink="http://www.w3.org/1999/xlink" width="400" height="400" viewBox="0, 0, 400,400"><g id="svgg"><path id="path0" d="M106.570 45.333 C 106.430 45.700,105.884 46.000,105.357 46.000 C 104.773 46.000,104.400 46.234,104.400 46.600 C 104.400 46.973,104.022 47.200,103.400 47.200 C 102.850 47.200,102.400 47.380,102.400 47.600 C 102.400 47.820,102.130 48.000,101.800 48.000 C 101.470 48.000,101.200 48.270,101.200 48.600 C 101.200 48.940,100.841 49.200,100.371 49.200 C 99.486 49.200,98.400 50.066,98.400 50.771 C 98.400 51.007,97.950 51.200,97.400 51.200 C 96.850 51.200,96.400 51.380,96.400 51.600 C 96.400 51.820,96.130 52.000,95.800 52.000 C 95.470 52.000,95.200 52.270,95.200 52.600 C 95.200 52.946,94.838 53.200,94.346 53.200 C 93.876 53.200,93.075 53.650,92.565 54.200 C 92.055 54.750,91.360 55.200,91.019 55.200 C 90.679 55.200,90.400 55.380,90.400 55.600 C 90.400 55.820,90.130 56.000,89.800 56.000 C 89.470 56.000,89.200 56.270,89.200 56.600 C 89.200 56.930,88.930 57.200,88.600 57.200 C 88.270 57.200,88.000 57.380,88.000 57.600 C 88.000 57.820,87.724 58.000,87.387 58.000 C 87.051 58.000,86.671 58.270,86.545 58.600 C 86.418 58.930,86.130 59.200,85.904 59.200 C 85.679 59.200,84.900 59.830,84.174 60.600 C 83.448 61.370,82.662 62.000,82.427 62.000 C 82.192 62.000,82.000 62.270,82.000 62.600 C 82.000 62.933,81.644 63.200,81.200 63.200 C 80.760 63.200,80.400 63.380,80.400 63.600 C 80.400 63.820,80.130 64.000,79.800 64.000 C 79.470 64.000,79.200 64.270,79.200 64.600 C 79.200 64.930,79.007 65.200,78.771 65.200 C 78.218 65.200,77.200 66.218,77.200 66.771 C 77.200 67.007,77.007 67.200,76.771 67.200 C 76.218 67.200,75.200 68.218,75.200 68.771 C 75.200 69.007,75.007 69.200,74.771 69.200 C 74.218 69.200,73.200 70.218,73.200 70.771 C 73.200 71.007,73.007 71.200,72.771 71.200 C 72.218 71.200,71.200 72.218,71.200 72.771 C 71.200 73.007,71.007 73.200,70.771 73.200 C 70.536 73.200,70.086 73.457,69.771 73.771 C 69.457 74.086,69.200 74.536,69.200 74.771 C 69.200 75.007,69.007 75.200,68.771 75.200 C 68.218 75.200,67.200 76.218,67.200 76.771 C 67.200 77.007,67.007 77.200,66.771 77.200 C 66.218 77.200,65.200 78.218,65.200 78.771 C 65.200 79.007,64.930 79.200,64.600 79.200 C 64.270 79.200,64.000 79.481,64.000 79.824 C 64.000 80.187,63.811 80.330,63.546 80.167 C 63.216 79.963,63.174 80.422,63.391 81.843 C 63.742 84.144,63.689 310.292,63.337 312.500 C 63.179 313.488,63.252 314.000,63.549 314.000 C 63.797 314.000,64.000 314.270,64.000 314.600 C 64.000 314.930,64.193 315.200,64.429 315.200 C 64.982 315.200,66.000 316.218,66.000 316.771 C 66.000 317.007,66.193 317.200,66.429 317.200 C 66.982 317.200,68.000 318.218,68.000 318.771 C 68.000 319.007,68.193 319.200,68.429 319.200 C 68.982 319.200,70.000 320.218,70.000 320.771 C 70.000 321.007,70.193 321.200,70.429 321.200 C 70.982 321.200,72.000 322.218,72.000 322.771 C 72.000 323.007,72.193 323.200,72.429 323.200 C 72.982 323.200,74.000 324.218,74.000 324.771 C 74.000 325.007,74.193 325.200,74.429 325.200 C 74.982 325.200,76.000 326.218,76.000 326.771 C 76.000 327.007,76.192 327.200,76.427 327.200 C 76.662 327.200,77.448 327.830,78.174 328.600 C 78.900 329.370,79.679 330.000,79.904 330.000 C 80.130 330.000,80.418 330.270,80.545 330.600 C 80.671 330.930,81.051 331.200,81.387 331.200 C 81.724 331.200,82.000 331.380,82.000 331.600 C 82.000 331.820,82.270 332.000,82.600 332.000 C 82.930 332.000,83.200 332.193,83.200 332.429 C 83.200 332.982,84.218 334.000,84.771 334.000 C 85.007 334.000,85.200 334.270,85.200 334.600 C 85.200 334.930,85.470 335.200,85.800 335.200 C 86.130 335.200,86.400 335.335,86.400 335.500 C 86.400 335.665,110.385 335.800,139.700 335.800 L 193.000 335.800 193.104 353.900 L 193.208 372.000 203.004 372.000 C 209.268 372.000,212.800 371.856,212.800 371.600 C 212.800 371.357,214.592 371.200,217.376 371.200 C 219.996 371.200,222.058 371.029,222.200 370.800 C 222.336 370.580,223.607 370.400,225.024 370.400 C 227.047 370.400,227.600 370.271,227.600 369.800 C 227.600 369.328,228.156 369.200,230.200 369.200 C 231.667 369.200,232.800 369.026,232.800 368.800 C 232.800 368.580,233.689 368.400,234.776 368.400 C 235.863 368.400,236.856 368.234,236.981 368.030 C 237.107 367.827,237.253 346.722,237.305 321.130 L 237.400 274.600 247.800 274.344 C 259.685 274.052,270.546 273.018,278.800 271.392 C 280.670 271.024,282.920 270.580,283.800 270.407 C 285.922 269.990,295.245 267.489,297.200 266.813 C 300.272 265.751,304.355 264.257,305.400 263.812 C 306.060 263.532,307.410 262.967,308.400 262.558 C 334.172 251.894,355.881 230.269,365.779 205.400 C 366.392 203.860,367.044 202.240,367.229 201.800 C 368.388 199.035,368.800 197.812,368.800 197.139 C 368.800 196.719,369.070 196.271,369.400 196.145 C 370.125 195.866,370.322 177.600,369.600 177.600 C 369.363 177.600,369.200 176.133,369.200 174.000 C 369.200 171.867,369.037 170.400,368.800 170.400 C 368.571 170.400,368.400 169.196,368.400 167.587 C 368.400 165.456,368.255 164.719,367.800 164.545 C 367.361 164.376,367.200 163.684,367.200 161.957 C 367.200 160.652,367.021 159.600,366.800 159.600 C 366.580 159.600,366.400 158.777,366.400 157.771 C 366.400 156.679,366.158 155.701,365.800 155.343 C 365.470 155.013,365.200 154.036,365.200 153.171 C 365.200 152.307,365.020 151.600,364.800 151.600 C 364.580 151.600,364.400 150.700,364.400 149.600 C 364.400 148.089,364.253 147.600,363.800 147.600 C 363.367 147.600,363.200 147.156,363.200 146.000 C 363.200 145.120,363.020 144.400,362.800 144.400 C 362.580 144.400,362.400 143.764,362.400 142.987 C 362.400 142.101,362.177 141.489,361.800 141.345 C 361.430 141.203,361.200 140.595,361.200 139.757 C 361.200 139.011,361.020 138.400,360.800 138.400 C 360.580 138.400,360.400 137.764,360.400 136.987 C 360.400 136.101,360.177 135.489,359.800 135.345 C 359.430 135.203,359.200 134.595,359.200 133.757 C 359.200 133.011,359.020 132.400,358.800 132.400 C 358.580 132.400,358.400 131.950,358.400 131.400 C 358.400 130.778,358.173 130.400,357.800 130.400 C 357.381 130.400,357.200 129.978,357.200 129.000 C 357.200 128.230,357.020 127.600,356.800 127.600 C 356.580 127.600,356.400 127.144,356.400 126.587 C 356.400 126.031,356.130 125.471,355.800 125.345 C 355.470 125.218,355.200 124.684,355.200 124.157 C 355.200 123.631,355.020 123.200,354.800 123.200 C 354.580 123.200,354.400 122.834,354.400 122.387 C 354.400 121.941,354.130 121.471,353.800 121.345 C 353.470 121.218,353.200 120.684,353.200 120.157 C 353.200 119.631,353.020 119.200,352.800 119.200 C 352.580 119.200,352.400 118.834,352.400 118.387 C 352.400 117.941,352.130 117.471,351.800 117.345 C 351.470 117.218,351.200 116.684,351.200 116.157 C 351.200 115.631,351.020 115.200,350.800 115.200 C 350.580 115.200,350.400 114.834,350.400 114.387 C 350.400 113.941,350.130 113.471,349.800 113.345 C 349.470 113.218,349.200 112.684,349.200 112.157 C 349.200 111.631,349.023 111.200,348.808 111.200 C 348.592 111.200,348.302 110.750,348.164 110.200 C 348.026 109.650,347.794 109.200,347.648 109.200 C 347.501 109.200,347.043 108.570,346.628 107.800 C 346.213 107.030,345.722 106.400,345.537 106.400 C 345.352 106.400,345.200 105.950,345.200 105.400 C 345.200 104.778,344.973 104.400,344.600 104.400 C 344.270 104.400,344.000 104.130,344.000 103.800 C 344.000 103.470,343.820 103.200,343.600 103.200 C 343.380 103.200,343.200 102.750,343.200 102.200 C 343.200 101.650,343.007 101.200,342.771 101.200 C 342.066 101.200,341.200 100.114,341.200 99.229 C 341.200 98.759,340.940 98.400,340.600 98.400 C 340.270 98.400,340.000 98.130,340.000 97.800 C 340.000 97.470,339.820 97.200,339.600 97.200 C 339.380 97.200,339.200 96.750,339.200 96.200 C 339.200 95.578,338.973 95.200,338.600 95.200 C 338.270 95.200,338.000 95.039,338.000 94.842 C 338.000 94.645,337.553 94.060,337.007 93.542 C 336.461 93.024,336.011 92.366,336.007 92.080 C 336.003 91.794,335.370 90.912,334.600 90.119 C 333.830 89.326,333.200 88.345,333.200 87.939 C 333.200 87.532,332.930 87.200,332.600 87.200 C 332.270 87.200,332.000 87.007,332.000 86.771 C 332.000 86.218,330.982 85.200,330.429 85.200 C 330.193 85.200,330.000 84.863,330.000 84.450 C 330.000 84.038,328.920 82.590,327.600 81.232 C 326.280 79.875,325.200 78.603,325.200 78.405 C 325.200 78.208,324.795 78.128,324.300 78.227 C 323.805 78.327,323.040 78.251,322.600 78.058 C 321.040 77.375,316.583 75.922,315.400 75.713 C 314.740 75.595,314.013 75.352,313.784 75.171 C 313.357 74.833,311.026 74.186,308.200 73.620 C 295.165 71.011,292.250 70.679,282.800 70.730 C 261.086 70.847,243.859 79.122,232.692 94.800 C 231.360 96.670,230.144 98.346,229.991 98.524 C 229.837 98.703,228.754 97.630,227.583 96.141 C 218.696 84.832,202.776 75.778,185.200 72.037 C 184.210 71.826,182.542 71.461,181.494 71.227 C 178.527 70.562,177.645 70.665,177.418 71.700 C 177.162 72.873,176.394 76.916,175.995 79.200 C 175.822 80.190,175.291 83.160,174.816 85.800 C 172.785 97.064,174.545 101.492,182.609 105.415 C 188.913 108.481,191.441 111.773,192.560 118.370 C 193.212 122.209,193.597 301.701,192.957 303.367 C 192.582 304.345,108.214 304.335,107.839 303.357 C 107.703 303.004,107.598 244.832,107.605 174.087 C 107.618 51.855,107.545 42.793,106.570 45.333 M290.200 103.210 C 294.184 104.306,296.303 104.935,297.600 105.407 C 308.082 109.221,317.296 117.404,323.090 128.044 C 324.521 130.672,327.600 138.212,327.600 139.088 C 327.600 139.421,327.862 140.527,328.183 141.546 C 329.244 144.922,330.243 151.716,330.631 158.200 C 330.981 164.056,329.506 178.398,328.101 182.800 C 327.855 183.570,327.441 185.010,327.180 186.000 C 320.831 210.091,301.301 230.403,277.400 237.772 C 276.080 238.179,274.640 238.643,274.200 238.803 C 272.999 239.239,269.633 240.070,267.600 240.432 C 258.283 242.093,255.168 242.397,246.480 242.496 L 237.400 242.600 237.283 194.800 C 237.152 141.159,237.074 143.069,239.836 132.800 C 240.221 131.370,240.685 130.029,240.868 129.820 C 241.050 129.611,241.200 129.205,241.200 128.918 C 241.200 127.879,244.788 120.903,246.620 118.383 C 251.017 112.332,260.864 104.800,264.378 104.800 C 264.742 104.800,265.211 104.639,265.420 104.442 C 265.836 104.050,268.671 103.316,271.800 102.790 C 274.468 102.342,288.180 102.655,290.200 103.210 " stroke="none" fill="#f8f9f9" fill-rule="evenodd"></path><path id="path1" d="M176.507 23.500 C 176.401 23.775,176.010 24.000,175.637 24.000 C 175.265 24.000,174.735 24.225,174.461 24.500 C 174.122 24.838,172.125 25.045,168.281 25.140 C 165.156 25.217,162.510 25.399,162.400 25.544 C 161.530 26.691,159.194 27.284,156.100 27.144 C 152.867 26.997,152.833 27.006,152.717 27.998 C 152.602 28.984,152.540 29.001,148.805 29.057 C 145.168 29.111,145.000 29.153,144.785 30.057 C 144.579 30.928,144.352 31.004,141.826 31.047 C 139.777 31.083,139.001 31.254,138.735 31.731 C 138.539 32.081,138.137 32.274,137.841 32.160 C 137.545 32.047,137.196 32.234,137.064 32.577 C 136.919 32.954,136.339 33.200,135.593 33.200 C 134.793 33.200,134.037 33.551,133.435 34.200 C 132.698 34.995,132.121 35.200,130.617 35.200 C 129.092 35.200,128.686 35.348,128.526 35.963 C 128.314 36.773,127.301 37.186,125.500 37.195 C 124.773 37.198,124.400 37.411,124.400 37.824 C 124.400 38.167,124.208 38.329,123.973 38.184 C 123.739 38.039,123.321 38.229,123.045 38.606 C 122.663 39.129,122.098 39.257,120.672 39.143 C 118.859 38.999,118.800 39.029,118.800 40.097 C 118.800 41.060,118.645 41.200,117.582 41.200 C 116.816 41.200,115.992 41.571,115.364 42.200 C 114.814 42.750,114.003 43.200,113.563 43.200 C 113.122 43.200,112.345 43.650,111.835 44.200 C 111.283 44.796,110.467 45.200,109.817 45.200 C 109.062 45.200,108.661 45.447,108.516 46.000 C 108.401 46.440,108.151 46.800,107.960 46.800 C 107.770 46.800,107.621 54.990,107.629 65.000 C 107.642 80.596,107.727 83.200,108.222 83.200 C 108.540 83.200,108.800 82.969,108.800 82.687 C 108.800 82.405,109.593 81.941,110.562 81.654 C 111.687 81.322,112.396 80.857,112.525 80.367 C 112.645 79.906,113.074 79.600,113.600 79.600 C 114.106 79.600,114.554 79.296,114.663 78.880 C 114.776 78.449,115.531 77.959,116.539 77.661 C 117.588 77.351,118.373 76.830,118.613 76.282 C 118.826 75.797,119.387 75.345,119.859 75.278 C 120.332 75.210,120.805 74.825,120.910 74.421 C 121.039 73.929,121.633 73.597,122.712 73.415 C 123.826 73.227,124.384 72.905,124.523 72.371 C 124.659 71.851,125.075 71.600,125.800 71.600 C 126.525 71.600,126.941 71.349,127.077 70.829 C 127.216 70.295,127.774 69.973,128.888 69.785 C 129.907 69.613,130.563 69.265,130.675 68.836 C 130.836 68.219,132.137 67.693,135.300 66.966 C 135.905 66.827,136.400 66.482,136.400 66.199 C 136.400 65.627,137.268 65.200,138.433 65.200 C 138.855 65.200,139.200 64.944,139.200 64.632 C 139.200 64.311,139.766 63.950,140.500 63.802 C 142.783 63.343,143.200 63.158,143.200 62.608 C 143.200 62.285,143.878 61.961,144.900 61.797 C 145.842 61.645,146.873 61.177,147.212 60.748 C 147.621 60.230,148.717 59.825,150.512 59.527 C 152.174 59.252,153.200 58.889,153.200 58.577 C 153.200 58.264,154.262 57.893,156.000 57.600 C 157.792 57.298,158.800 56.940,158.800 56.607 C 158.800 55.974,159.685 55.600,161.183 55.600 C 163.098 55.600,164.800 55.122,164.800 54.585 C 164.800 54.024,166.075 53.771,170.980 53.358 C 173.345 53.160,174.319 52.903,174.780 52.356 C 175.288 51.753,176.241 51.572,180.068 51.353 C 184.022 51.127,184.764 50.980,184.918 50.394 C 185.079 49.778,186.009 49.669,193.349 49.407 C 199.985 49.170,201.600 49.003,201.600 48.556 C 201.600 47.759,216.907 47.748,218.433 48.544 C 219.114 48.899,221.847 49.175,226.433 49.352 C 235.269 49.693,237.600 49.952,237.600 50.594 C 237.600 50.942,238.737 51.177,241.300 51.359 C 247.648 51.810,249.200 52.056,249.200 52.611 C 249.200 52.914,249.908 53.239,250.900 53.391 C 254.739 53.982,255.200 54.111,255.200 54.590 C 255.200 55.085,257.694 55.600,260.093 55.600 C 260.913 55.600,261.335 55.830,261.471 56.352 C 261.630 56.959,262.197 57.155,264.428 57.375 C 266.445 57.574,267.327 57.846,267.705 58.386 C 268.027 58.845,269.166 59.310,270.711 59.614 C 272.207 59.909,273.200 60.308,273.200 60.615 C 273.200 60.925,274.001 61.235,275.249 61.407 C 276.744 61.612,277.349 61.885,277.488 62.415 C 277.631 62.963,278.345 63.253,280.400 63.600 C 282.526 63.959,283.166 64.228,283.324 64.830 C 283.459 65.349,283.875 65.600,284.600 65.600 C 285.338 65.600,285.740 65.850,285.884 66.400 C 285.999 66.840,286.297 67.201,286.547 67.202 C 287.781 67.208,290.000 68.103,290.000 68.595 C 290.000 68.930,290.678 69.291,291.700 69.499 C 292.905 69.744,293.385 70.035,293.348 70.500 C 293.308 71.011,293.789 71.203,295.548 71.376 C 297.482 71.566,302.186 72.399,308.200 73.616 C 311.064 74.196,313.360 74.835,313.784 75.171 C 314.013 75.352,314.740 75.595,315.400 75.713 C 316.677 75.939,321.200 77.432,322.699 78.121 C 323.194 78.348,323.707 78.426,323.839 78.294 C 324.252 77.881,323.590 77.200,322.776 77.200 C 322.215 77.200,322.000 76.923,322.000 76.200 C 322.000 75.400,321.800 75.200,321.000 75.200 C 320.200 75.200,320.000 75.000,320.000 74.200 C 320.000 73.400,319.800 73.200,319.000 73.200 C 318.200 73.200,318.000 73.000,318.000 72.200 C 318.000 71.400,317.800 71.200,317.000 71.200 C 316.200 71.200,316.000 71.000,316.000 70.200 C 316.000 69.400,315.800 69.200,315.000 69.200 C 314.200 69.200,314.000 69.000,314.000 68.200 C 314.000 67.408,313.798 67.200,313.028 67.200 C 312.324 67.200,312.020 66.951,311.928 66.300 C 311.846 65.722,311.478 65.354,310.900 65.272 C 310.405 65.202,310.000 64.887,310.000 64.572 C 310.000 64.257,309.809 64.000,309.576 64.000 C 309.343 64.000,309.264 63.820,309.400 63.600 C 309.536 63.380,309.277 63.200,308.824 63.200 C 308.358 63.200,308.000 62.939,308.000 62.600 C 308.000 62.270,307.719 62.000,307.376 62.000 C 307.033 62.000,306.867 61.816,307.006 61.590 C 307.145 61.365,307.111 61.206,306.930 61.237 C 305.138 61.549,304.000 61.146,304.000 60.200 C 304.000 59.354,303.814 59.200,302.792 59.200 C 301.704 59.200,301.610 59.101,301.836 58.200 C 302.065 57.288,301.973 57.200,300.797 57.200 C 299.718 57.200,299.540 57.073,299.709 56.426 C 299.930 55.581,299.326 55.200,297.767 55.200 C 297.235 55.200,296.800 55.007,296.800 54.771 C 296.800 53.996,295.676 53.200,294.582 53.200 C 293.718 53.200,293.546 53.049,293.708 52.430 C 293.849 51.890,293.744 51.723,293.355 51.873 C 293.050 51.990,292.800 51.886,292.800 51.643 C 292.800 51.399,292.170 51.200,291.400 51.200 C 290.173 51.200,290.000 51.076,290.000 50.200 C 290.000 49.356,289.813 49.200,288.800 49.200 C 288.140 49.200,287.600 49.007,287.600 48.771 C 287.600 47.959,286.454 47.200,285.229 47.200 C 284.185 47.200,284.000 47.050,284.000 46.200 C 284.000 45.268,283.865 45.200,282.027 45.200 C 280.171 45.200,280.046 45.134,279.927 44.100 C 279.814 43.120,279.658 43.014,278.500 43.126 C 277.502 43.222,277.200 43.096,277.200 42.583 C 277.200 42.153,276.986 41.997,276.600 42.145 C 276.208 42.295,276.000 42.133,276.000 41.675 C 276.000 41.097,275.637 40.978,273.900 40.988 C 271.903 40.999,271.794 40.946,271.673 39.899 C 271.566 38.962,271.406 38.833,270.602 39.035 C 269.281 39.367,268.183 38.936,267.724 37.907 C 267.390 37.159,267.061 37.048,265.466 37.146 C 263.792 37.249,263.600 37.173,263.600 36.407 C 263.600 35.937,263.420 35.664,263.200 35.800 C 262.980 35.936,262.800 35.794,262.800 35.485 C 262.800 35.058,262.203 34.932,260.324 34.961 C 258.011 34.997,257.833 34.936,257.610 34.014 C 257.392 33.117,257.201 33.039,255.484 33.145 C 254.062 33.232,253.539 33.106,253.356 32.630 C 253.223 32.284,252.774 32.000,252.357 32.000 C 251.941 32.000,251.600 31.756,251.600 31.459 C 251.600 31.055,251.118 30.962,249.700 31.094 C 247.495 31.299,245.601 30.691,245.342 29.695 C 245.190 29.113,244.775 29.022,242.785 29.135 C 240.601 29.260,240.314 29.175,239.229 28.090 C 238.178 27.040,237.837 26.929,236.124 27.082 C 233.506 27.315,229.540 26.458,229.319 25.610 C 229.167 25.029,228.483 24.973,223.380 25.127 C 218.324 25.279,217.583 25.220,217.364 24.650 C 217.227 24.293,216.699 24.000,216.191 24.000 C 215.682 24.000,215.200 23.800,215.119 23.556 C 214.892 22.876,176.768 22.820,176.507 23.500 M61.814 84.357 C 61.682 84.773,61.219 85.206,60.787 85.319 C 60.320 85.441,60.000 85.866,60.000 86.363 C 60.000 86.989,59.748 87.200,59.000 87.200 C 58.200 87.200,58.000 87.400,58.000 88.200 C 58.000 89.000,57.800 89.200,57.000 89.200 C 56.148 89.200,56.000 89.384,56.000 90.443 C 56.000 91.402,55.858 91.631,55.379 91.447 C 55.023 91.311,54.863 91.378,55.003 91.605 C 55.137 91.822,54.967 92.000,54.624 92.000 C 54.220 92.000,54.000 92.364,54.000 93.029 C 54.000 94.083,53.192 95.200,52.429 95.200 C 52.193 95.200,52.000 95.650,52.000 96.200 C 52.000 97.000,51.800 97.200,51.000 97.200 C 50.193 97.200,50.000 97.398,50.000 98.229 C 50.000 99.283,49.192 100.400,48.429 100.400 C 48.193 100.400,48.000 101.089,48.000 101.932 C 48.000 103.263,47.882 103.459,47.100 103.432 C 46.426 103.408,46.172 103.651,46.088 104.400 C 45.838 106.633,45.576 107.200,44.792 107.200 C 44.179 107.200,44.000 107.471,44.000 108.400 C 44.000 109.060,43.807 109.600,43.571 109.600 C 42.797 109.600,42.000 110.723,42.000 111.814 C 42.000 112.618,41.845 112.826,41.379 112.647 C 41.023 112.511,40.863 112.578,41.003 112.805 C 41.137 113.022,40.967 113.200,40.624 113.200 C 40.164 113.200,40.000 113.616,40.000 114.787 C 40.000 116.104,39.886 116.331,39.334 116.119 C 38.885 115.947,38.763 116.017,38.960 116.335 C 39.125 116.602,38.981 116.909,38.625 117.046 C 38.176 117.218,38.000 117.837,38.000 119.243 C 38.000 121.064,37.930 121.200,37.000 121.200 C 36.052 121.200,36.000 121.317,36.000 123.443 C 36.000 125.374,35.907 125.650,35.332 125.429 C 34.430 125.083,34.013 125.860,34.006 127.900 C 34.003 128.902,33.813 129.600,33.544 129.600 C 32.818 129.600,32.027 130.901,32.013 132.117 C 32.001 133.158,31.804 133.531,30.500 134.985 C 30.225 135.292,30.000 136.456,30.000 137.571 C 30.000 139.108,29.854 139.600,29.400 139.600 C 29.070 139.600,28.800 139.949,28.800 140.376 C 28.800 140.803,28.620 141.264,28.400 141.400 C 28.180 141.536,28.000 142.051,28.000 142.544 C 28.000 143.037,27.775 143.682,27.500 143.979 C 27.100 144.410,27.100 144.461,27.500 144.235 C 27.800 144.066,28.000 144.185,28.000 144.534 C 28.000 144.853,27.730 145.218,27.400 145.345 C 27.070 145.471,26.800 146.031,26.800 146.587 C 26.800 147.144,26.620 147.600,26.400 147.600 C 26.180 147.600,26.000 148.500,26.000 149.600 C 26.000 151.111,25.853 151.600,25.400 151.600 C 24.983 151.600,24.800 152.020,24.800 152.976 C 24.800 153.733,24.620 154.464,24.400 154.600 C 24.180 154.736,24.000 155.922,24.000 157.236 C 24.000 158.991,23.841 159.686,23.400 159.855 C 22.969 160.021,22.800 160.694,22.800 162.243 C 22.800 163.429,22.620 164.400,22.400 164.400 C 22.169 164.400,22.000 165.656,22.000 167.367 C 22.000 169.266,21.833 170.389,21.535 170.488 C 20.053 170.982,19.962 223.600,21.443 223.600 C 21.869 223.600,22.000 224.304,22.000 226.600 C 22.000 228.333,22.169 229.600,22.400 229.600 C 22.622 229.600,22.800 230.671,22.800 232.013 C 22.800 233.788,22.958 234.486,23.400 234.655 C 23.839 234.824,24.000 235.516,24.000 237.243 C 24.000 238.548,24.179 239.600,24.400 239.600 C 24.620 239.600,24.800 240.307,24.800 241.171 C 24.800 242.036,25.070 243.013,25.400 243.343 C 25.730 243.673,26.000 244.586,26.000 245.371 C 26.000 246.157,26.180 246.800,26.400 246.800 C 26.620 246.800,26.800 247.411,26.800 248.157 C 26.800 248.995,27.030 249.603,27.400 249.745 C 27.777 249.889,28.000 250.501,28.000 251.387 C 28.000 252.164,28.180 252.800,28.400 252.800 C 28.620 252.800,28.800 253.436,28.800 254.213 C 28.800 255.099,29.023 255.711,29.400 255.855 C 29.770 255.997,30.000 256.605,30.000 257.443 C 30.000 258.189,30.180 258.800,30.400 258.800 C 30.620 258.800,30.800 259.318,30.800 259.951 C 30.800 260.584,31.070 261.326,31.400 261.600 C 31.730 261.874,32.000 262.526,32.000 263.049 C 32.000 263.572,32.180 264.000,32.400 264.000 C 32.620 264.000,32.800 264.437,32.800 264.971 C 32.800 265.506,33.070 266.213,33.400 266.543 C 33.730 266.873,34.000 267.516,34.000 267.971 C 34.000 268.427,34.180 268.800,34.400 268.800 C 34.620 268.800,34.800 269.250,34.800 269.800 C 34.800 270.422,35.027 270.800,35.400 270.800 C 35.773 270.800,36.000 271.178,36.000 271.800 C 36.000 272.350,36.180 272.800,36.400 272.800 C 36.620 272.800,36.800 273.250,36.800 273.800 C 36.800 274.422,37.027 274.800,37.400 274.800 C 37.773 274.800,38.000 275.178,38.000 275.800 C 38.000 276.350,38.180 276.800,38.400 276.800 C 38.620 276.800,38.800 277.250,38.800 277.800 C 38.800 278.422,39.027 278.800,39.400 278.800 C 39.773 278.800,40.000 279.178,40.000 279.800 C 40.000 280.350,40.180 280.800,40.400 280.800 C 40.620 280.800,40.800 281.166,40.800 281.613 C 40.800 282.059,41.070 282.529,41.400 282.655 C 41.730 282.782,42.000 283.316,42.000 283.843 C 42.000 284.369,42.151 284.800,42.336 284.800 C 42.520 284.800,43.015 285.518,43.436 286.395 C 43.856 287.273,44.425 287.993,44.700 287.995 C 44.975 287.998,45.200 288.373,45.200 288.829 C 45.200 289.714,46.066 290.800,46.771 290.800 C 47.007 290.800,47.200 291.250,47.200 291.800 C 47.200 292.350,47.359 292.800,47.553 292.800 C 47.748 292.800,48.012 293.115,48.142 293.500 C 48.635 294.968,50.094 296.800,50.771 296.800 C 51.007 296.800,51.200 297.250,51.200 297.800 C 51.200 298.350,51.380 298.800,51.600 298.800 C 51.820 298.800,52.000 299.070,52.000 299.400 C 52.000 299.730,52.270 300.000,52.600 300.000 C 52.930 300.000,53.200 300.332,53.200 300.739 C 53.200 301.145,53.830 302.126,54.600 302.919 C 55.370 303.712,56.000 304.549,56.000 304.780 C 56.000 305.011,56.172 305.200,56.381 305.200 C 56.591 305.200,57.061 305.830,57.427 306.600 C 57.792 307.370,58.341 308.000,58.646 308.000 C 58.951 308.000,59.200 308.270,59.200 308.600 C 59.200 308.930,59.380 309.200,59.600 309.200 C 59.820 309.200,60.000 309.476,60.000 309.813 C 60.000 310.149,60.270 310.529,60.600 310.655 C 60.930 310.782,61.200 311.044,61.200 311.238 C 61.200 311.675,62.480 313.200,62.846 313.200 C 63.696 313.200,64.084 290.956,63.243 290.420 C 63.053 290.299,62.773 289.453,62.620 288.539 C 62.431 287.407,62.107 286.817,61.603 286.685 C 61.072 286.546,60.782 285.955,60.578 284.594 C 60.374 283.234,60.085 282.643,59.555 282.504 C 59.011 282.362,58.746 281.781,58.549 280.303 C 58.359 278.865,58.083 278.242,57.578 278.110 C 57.069 277.977,56.754 277.253,56.448 275.515 C 56.214 274.190,55.768 272.902,55.457 272.653 C 55.145 272.404,54.670 270.985,54.400 269.500 C 54.098 267.837,53.714 266.800,53.400 266.800 C 53.096 266.800,52.786 266.035,52.630 264.900 C 52.169 261.537,51.947 260.800,51.396 260.800 C 51.009 260.800,50.774 259.874,50.571 257.548 C 50.345 254.956,50.148 254.259,49.599 254.116 C 48.881 253.928,48.409 250.987,48.403 246.663 C 48.401 245.112,48.251 244.686,47.657 244.531 C 47.006 244.361,46.881 243.756,46.652 239.668 C 46.117 230.114,45.918 228.400,45.345 228.400 C 44.518 228.400,44.538 200.476,45.365 200.158 C 45.772 200.002,45.997 198.863,46.173 196.071 C 46.801 186.072,46.858 185.600,47.436 185.600 C 47.746 185.600,47.999 185.375,47.997 185.100 C 47.976 181.383,49.001 174.441,49.595 174.285 C 50.127 174.146,50.329 173.466,50.522 171.160 C 50.692 169.135,50.970 168.065,51.411 167.743 C 51.814 167.448,52.249 166.050,52.580 163.978 C 52.920 161.854,53.327 160.561,53.726 160.338 C 54.101 160.128,54.451 159.130,54.618 157.796 C 54.792 156.400,55.082 155.600,55.413 155.600 C 55.903 155.600,56.800 152.513,56.800 150.827 C 56.800 150.423,57.146 150.003,57.569 149.892 C 58.129 149.746,58.413 149.189,58.615 147.840 C 58.768 146.821,59.101 145.856,59.355 145.694 C 59.901 145.347,60.800 143.410,60.800 142.581 C 60.800 142.262,61.155 141.645,61.590 141.210 C 62.024 140.776,62.502 139.921,62.651 139.310 C 62.801 138.700,63.074 138.100,63.259 137.978 C 63.625 137.736,64.037 88.582,63.698 85.500 C 63.475 83.477,62.316 82.774,61.814 84.357 M88.700 335.876 C 87.616 336.159,88.746 338.000,90.005 338.000 C 90.222 338.000,90.400 338.270,90.400 338.600 C 90.400 338.930,90.715 339.206,91.100 339.213 C 91.965 339.228,93.200 340.129,93.200 340.744 C 93.200 340.995,93.650 341.200,94.200 341.200 C 94.750 341.200,95.200 341.380,95.200 341.600 C 95.200 341.820,95.470 342.000,95.800 342.000 C 96.130 342.000,96.400 342.270,96.400 342.600 C 96.400 342.940,96.759 343.200,97.229 343.200 C 98.114 343.200,99.200 344.066,99.200 344.771 C 99.200 345.007,99.650 345.200,100.200 345.200 C 100.750 345.200,101.200 345.380,101.200 345.600 C 101.200 345.820,101.470 346.000,101.800 346.000 C 102.130 346.000,102.400 346.270,102.400 346.600 C 102.400 346.973,102.778 347.200,103.400 347.200 C 103.950 347.200,104.400 347.380,104.400 347.600 C 104.400 347.820,104.662 348.000,104.982 348.000 C 105.302 348.000,105.992 348.428,106.516 348.952 C 107.039 349.476,107.858 350.028,108.334 350.179 C 108.810 350.330,109.200 350.622,109.200 350.827 C 109.200 351.032,109.631 351.200,110.157 351.200 C 110.684 351.200,111.218 351.470,111.345 351.800 C 111.471 352.130,111.941 352.400,112.387 352.400 C 112.834 352.400,113.200 352.580,113.200 352.800 C 113.200 353.020,113.631 353.200,114.157 353.200 C 114.684 353.200,115.218 353.470,115.345 353.800 C 115.471 354.130,115.941 354.400,116.387 354.400 C 116.834 354.400,117.200 354.580,117.200 354.800 C 117.200 355.020,117.631 355.200,118.157 355.200 C 118.684 355.200,119.218 355.470,119.345 355.800 C 119.471 356.130,119.941 356.400,120.387 356.400 C 120.834 356.400,121.200 356.580,121.200 356.800 C 121.200 357.020,121.573 357.200,122.029 357.200 C 122.484 357.200,123.137 357.480,123.478 357.821 C 124.287 358.630,127.000 358.459,127.000 357.600 C 127.000 357.215,126.533 356.955,125.700 356.875 C 124.754 356.783,124.400 356.551,124.400 356.019 C 124.400 355.498,123.882 355.135,122.600 354.757 C 121.339 354.385,120.800 354.012,120.800 353.513 C 120.800 353.012,120.491 352.800,119.763 352.800 C 119.076 352.800,118.657 352.540,118.525 352.033 C 118.397 351.546,117.691 351.079,116.588 350.753 C 115.540 350.444,114.777 349.955,114.663 349.520 C 114.554 349.104,114.106 348.800,113.600 348.800 C 113.082 348.800,112.645 348.495,112.530 348.053 C 112.419 347.630,111.689 347.093,110.846 346.815 C 110.026 346.545,109.187 345.936,108.978 345.462 C 108.770 344.988,108.195 344.542,107.700 344.472 C 107.122 344.390,106.800 344.068,106.800 343.572 C 106.800 343.064,106.524 342.800,105.990 342.800 C 105.494 342.800,105.033 342.412,104.800 341.800 C 104.560 341.168,104.108 340.800,103.572 340.800 C 103.080 340.800,102.643 340.486,102.529 340.049 C 102.421 339.636,101.897 339.099,101.366 338.857 C 100.835 338.615,100.400 338.143,100.400 337.809 C 100.400 337.474,100.132 337.200,99.803 337.200 C 99.475 337.200,98.982 336.840,98.707 336.400 C 98.221 335.621,91.102 335.248,88.700 335.876 M128.400 359.827 C 128.400 360.271,128.711 360.416,129.469 360.327 C 131.026 360.142,131.164 359.200,129.633 359.200 C 128.780 359.200,128.400 359.393,128.400 359.827 M133.300 361.700 C 133.392 361.975,133.707 362.200,134.000 362.200 C 134.293 362.200,134.608 361.975,134.700 361.700 C 134.799 361.403,134.516 361.200,134.000 361.200 C 133.484 361.200,133.201 361.403,133.300 361.700 " stroke="none" fill="#f02412" fill-rule="evenodd"></path><path id="path2" d="M177.800 22.800 C 178.131 23.335,211.572 23.335,212.400 22.800 C 212.792 22.546,206.867 22.410,195.276 22.406 C 183.561 22.402,177.637 22.536,177.800 22.800 M168.196 23.373 C 167.690 23.755,166.489 23.979,164.900 23.987 C 163.508 23.994,162.400 24.177,162.400 24.400 C 162.400 24.629,161.196 24.800,159.587 24.800 C 157.456 24.800,156.719 24.945,156.545 25.400 C 156.395 25.789,155.775 26.000,154.781 26.000 C 153.937 26.000,153.136 26.180,153.000 26.400 C 152.864 26.620,151.966 26.800,151.005 26.800 C 149.985 26.800,149.007 27.050,148.657 27.400 C 148.327 27.730,147.504 28.000,146.829 28.000 C 145.989 28.000,145.600 28.195,145.600 28.616 C 145.600 29.854,152.571 29.248,152.717 27.998 C 152.833 27.006,152.867 26.997,156.100 27.144 C 159.194 27.284,161.530 26.691,162.400 25.544 C 162.510 25.399,165.156 25.217,168.281 25.140 C 172.125 25.045,174.122 24.838,174.461 24.500 C 174.735 24.225,175.265 24.000,175.637 24.000 C 176.010 24.000,176.410 23.751,176.527 23.446 C 176.850 22.604,169.302 22.537,168.196 23.373 M215.055 23.400 C 215.182 23.730,215.697 24.000,216.200 24.000 C 216.703 24.000,217.220 24.276,217.349 24.612 C 217.659 25.420,227.230 25.314,227.501 24.500 C 227.621 24.136,226.996 24.000,225.205 24.000 C 223.550 24.000,222.546 23.803,222.143 23.400 C 221.705 22.962,220.636 22.800,218.184 22.800 C 215.363 22.800,214.862 22.896,215.055 23.400 M229.271 25.474 C 229.447 26.386,232.780 27.229,235.704 27.101 C 238.402 26.983,237.884 26.000,235.124 26.000 C 234.036 26.000,233.600 25.828,233.600 25.400 C 233.600 24.938,233.086 24.800,231.371 24.800 C 229.496 24.800,229.162 24.907,229.271 25.474 M238.400 27.171 C 238.400 27.375,238.874 27.915,239.454 28.371 C 240.778 29.413,244.800 29.585,244.800 28.600 C 244.800 28.169,244.360 28.000,243.243 28.000 C 242.228 28.000,241.605 27.791,241.455 27.400 C 241.203 26.742,238.400 26.532,238.400 27.171 M141.745 29.400 C 141.604 29.767,140.997 30.000,140.181 30.000 C 139.447 30.000,138.736 30.180,138.600 30.400 C 138.464 30.620,137.933 30.800,137.419 30.800 C 136.906 30.800,136.382 31.070,136.255 31.400 C 136.112 31.774,135.502 32.000,134.636 32.000 C 133.872 32.000,133.136 32.180,133.000 32.400 C 132.864 32.620,132.416 32.800,132.005 32.800 C 131.594 32.800,130.987 33.070,130.657 33.400 C 130.327 33.730,129.684 34.000,129.229 34.000 C 128.773 34.000,128.400 34.180,128.400 34.400 C 128.400 34.620,127.963 34.800,127.429 34.800 C 126.894 34.800,126.187 35.070,125.857 35.400 C 125.527 35.730,124.895 36.000,124.452 36.000 C 124.009 36.000,123.536 36.180,123.400 36.400 C 123.264 36.620,122.798 36.800,122.364 36.800 C 121.930 36.800,121.471 37.070,121.345 37.400 C 121.218 37.730,120.684 38.000,120.157 38.000 C 119.573 38.000,119.200 38.234,119.200 38.600 C 119.200 39.467,122.731 39.446,123.064 38.577 C 123.196 38.234,123.550 38.049,123.852 38.164 C 124.163 38.284,124.400 38.121,124.400 37.787 C 124.400 37.415,124.802 37.198,125.500 37.195 C 127.301 37.186,128.314 36.773,128.526 35.963 C 128.686 35.348,129.092 35.200,130.617 35.200 C 132.121 35.200,132.698 34.995,133.435 34.200 C 134.037 33.551,134.793 33.200,135.593 33.200 C 136.339 33.200,136.919 32.954,137.064 32.577 C 137.196 32.234,137.545 32.047,137.841 32.160 C 138.137 32.274,138.539 32.081,138.735 31.731 C 139.001 31.255,139.776 31.083,141.815 31.047 C 144.433 31.002,144.552 30.957,144.835 29.900 C 145.180 28.617,142.228 28.140,141.745 29.400 M245.274 29.490 C 245.489 30.604,247.197 31.248,249.500 31.084 C 251.057 30.973,251.600 31.072,251.600 31.467 C 251.600 31.760,251.941 32.000,252.357 32.000 C 252.774 32.000,253.223 32.284,253.356 32.630 C 253.539 33.106,254.062 33.232,255.484 33.145 C 257.202 33.039,257.391 33.116,257.603 34.014 C 257.866 35.127,261.552 35.544,261.900 34.500 C 262.009 34.172,261.642 34.000,260.833 34.000 C 260.155 34.000,259.600 33.844,259.600 33.654 C 259.600 33.250,256.491 32.000,255.487 32.000 C 255.109 32.000,254.800 31.822,254.800 31.605 C 254.800 31.387,254.080 31.094,253.200 30.954 C 252.320 30.813,251.600 30.541,251.600 30.349 C 251.600 30.157,250.989 30.000,250.243 30.000 C 249.405 30.000,248.797 29.770,248.655 29.400 C 248.301 28.477,245.096 28.562,245.274 29.490 M262.800 35.447 C 262.800 35.777,262.980 35.936,263.200 35.800 C 263.420 35.664,263.600 35.923,263.600 36.376 C 263.600 37.071,263.851 37.200,265.200 37.200 C 266.356 37.200,266.800 37.033,266.800 36.600 C 266.800 36.232,266.426 36.000,265.833 36.000 C 265.302 36.000,264.806 35.818,264.732 35.596 C 264.501 34.903,262.800 34.771,262.800 35.447 M267.646 37.700 C 268.456 39.239,270.800 39.908,270.800 38.600 C 270.800 38.234,270.427 38.000,269.843 38.000 C 269.316 38.000,268.782 37.730,268.655 37.400 C 268.529 37.070,268.143 36.800,267.798 36.800 C 267.275 36.800,267.250 36.948,267.646 37.700 M117.345 39.400 C 117.218 39.730,116.684 40.000,116.157 40.000 C 115.631 40.000,115.200 40.180,115.200 40.400 C 115.200 40.620,114.834 40.800,114.387 40.800 C 113.941 40.800,113.471 41.070,113.345 41.400 C 113.218 41.730,112.684 42.000,112.157 42.000 C 111.631 42.000,111.200 42.177,111.200 42.392 C 111.200 42.608,110.750 42.898,110.200 43.036 C 109.650 43.174,109.200 43.447,109.200 43.643 C 109.200 43.840,108.851 44.000,108.424 44.000 C 107.421 44.000,107.226 44.354,107.483 45.702 C 107.730 46.991,108.220 47.133,108.516 46.000 C 108.661 45.447,109.062 45.200,109.817 45.200 C 110.467 45.200,111.283 44.796,111.835 44.200 C 112.345 43.650,113.122 43.200,113.563 43.200 C 114.003 43.200,114.814 42.750,115.364 42.200 C 115.992 41.571,116.816 41.200,117.582 41.200 C 118.669 41.200,118.800 41.071,118.800 40.000 C 118.800 38.713,117.771 38.289,117.345 39.400 M271.673 39.900 C 271.823 41.196,274.800 41.886,274.800 40.624 C 274.800 40.225,274.439 40.000,273.800 40.000 C 273.178 40.000,272.800 39.773,272.800 39.400 C 272.800 39.070,272.518 38.800,272.173 38.800 C 271.726 38.800,271.583 39.114,271.673 39.900 M276.000 41.600 C 276.000 42.347,276.107 42.453,276.480 42.080 C 276.853 41.707,276.853 41.493,276.480 41.120 C 276.107 40.747,276.000 40.853,276.000 41.600 M277.200 42.600 C 277.200 42.933,277.556 43.200,278.000 43.200 C 278.444 43.200,278.800 42.933,278.800 42.600 C 278.800 42.267,278.444 42.000,278.000 42.000 C 277.556 42.000,277.200 42.267,277.200 42.600 M279.921 44.041 C 280.075 45.090,280.238 45.200,281.633 45.200 C 282.839 45.200,283.125 45.069,282.945 44.600 C 282.818 44.270,282.284 44.000,281.757 44.000 C 281.231 44.000,280.800 43.839,280.800 43.643 C 280.800 43.446,280.564 43.195,280.275 43.084 C 279.896 42.939,279.798 43.203,279.921 44.041 M284.000 46.600 C 284.000 46.973,284.378 47.200,285.000 47.200 C 285.622 47.200,286.000 46.973,286.000 46.600 C 286.000 46.227,285.622 46.000,285.000 46.000 C 284.378 46.000,284.000 46.227,284.000 46.600 M286.800 47.600 C 286.800 47.820,286.980 48.000,287.200 48.000 C 287.420 48.000,287.600 48.270,287.600 48.600 C 287.600 48.930,287.870 49.200,288.200 49.200 C 288.958 49.200,288.972 48.515,288.229 47.771 C 287.568 47.110,286.800 47.018,286.800 47.600 M201.600 48.556 C 201.600 49.003,199.985 49.170,193.349 49.407 C 186.009 49.669,185.079 49.778,184.918 50.394 C 184.764 50.980,184.022 51.127,180.068 51.353 C 176.241 51.572,175.288 51.753,174.780 52.356 C 174.319 52.903,173.345 53.160,170.980 53.358 C 166.075 53.771,164.800 54.024,164.800 54.585 C 164.800 55.122,163.098 55.600,161.183 55.600 C 159.685 55.600,158.800 55.974,158.800 56.607 C 158.800 56.940,157.792 57.298,156.000 57.600 C 154.262 57.893,153.200 58.264,153.200 58.577 C 153.200 58.889,152.174 59.252,150.512 59.527 C 148.717 59.825,147.621 60.230,147.212 60.748 C 146.873 61.177,145.842 61.645,144.900 61.797 C 143.878 61.961,143.200 62.285,143.200 62.608 C 143.200 63.158,142.783 63.343,140.500 63.802 C 139.766 63.950,139.200 64.311,139.200 64.632 C 139.200 64.944,138.855 65.200,138.433 65.200 C 137.268 65.200,136.400 65.627,136.400 66.199 C 136.400 66.482,135.905 66.827,135.300 66.966 C 132.137 67.693,130.836 68.219,130.675 68.836 C 130.563 69.265,129.907 69.613,128.888 69.785 C 127.774 69.973,127.216 70.295,127.077 70.829 C 126.941 71.349,126.525 71.600,125.800 71.600 C 125.075 71.600,124.659 71.851,124.523 72.371 C 124.384 72.905,123.826 73.227,122.712 73.415 C 121.633 73.597,121.039 73.929,120.910 74.421 C 120.805 74.825,120.332 75.210,119.859 75.278 C 119.387 75.345,118.826 75.797,118.613 76.282 C 118.373 76.830,117.588 77.351,116.539 77.661 C 115.531 77.959,114.776 78.449,114.663 78.880 C 114.554 79.296,114.106 79.600,113.600 79.600 C 113.074 79.600,112.645 79.906,112.525 80.367 C 112.396 80.857,111.687 81.322,110.562 81.654 C 109.593 81.941,108.800 82.386,108.800 82.645 C 108.800 82.903,108.530 83.218,108.200 83.345 C 107.583 83.581,107.229 301.768,107.843 303.367 C 108.215 304.337,192.585 304.337,192.957 303.367 C 193.597 301.701,193.212 122.209,192.560 118.370 C 191.441 111.773,188.913 108.481,182.609 105.415 C 174.545 101.492,172.785 97.064,174.816 85.800 C 175.291 83.160,175.822 80.190,175.995 79.200 C 176.394 76.916,177.162 72.873,177.418 71.700 C 177.643 70.675,178.523 70.564,181.394 71.200 C 182.387 71.420,184.055 71.784,185.100 72.010 C 202.924 75.855,218.670 84.799,227.583 96.141 C 228.754 97.630,229.837 98.703,229.991 98.524 C 230.144 98.346,231.360 96.670,232.692 94.800 C 241.582 82.319,255.785 73.840,272.212 71.209 C 274.758 70.801,291.355 70.519,292.800 70.859 C 293.130 70.936,293.400 70.736,293.400 70.413 C 293.400 70.041,292.776 69.702,291.700 69.489 C 290.674 69.286,290.000 68.932,290.000 68.595 C 290.000 68.103,287.781 67.208,286.547 67.202 C 286.297 67.201,285.999 66.840,285.884 66.400 C 285.740 65.850,285.338 65.600,284.600 65.600 C 283.875 65.600,283.459 65.349,283.324 64.830 C 283.166 64.228,282.526 63.959,280.400 63.600 C 278.345 63.253,277.631 62.963,277.488 62.415 C 277.349 61.885,276.744 61.612,275.249 61.407 C 274.001 61.235,273.200 60.925,273.200 60.615 C 273.200 60.308,272.207 59.909,270.711 59.614 C 269.166 59.310,268.027 58.845,267.705 58.386 C 267.327 57.846,266.445 57.574,264.428 57.375 C 262.197 57.155,261.630 56.959,261.471 56.352 C 261.335 55.830,260.913 55.600,260.093 55.600 C 257.668 55.600,255.200 55.086,255.200 54.581 C 255.200 54.288,254.475 53.959,253.500 53.809 C 249.658 53.217,249.200 53.089,249.200 52.602 C 249.200 52.057,247.609 51.807,241.300 51.359 C 238.737 51.177,237.600 50.942,237.600 50.594 C 237.600 49.952,235.269 49.693,226.433 49.352 C 221.847 49.175,219.114 48.899,218.433 48.544 C 216.907 47.748,201.600 47.759,201.600 48.556 M290.000 50.200 C 290.000 51.000,290.200 51.200,291.000 51.200 C 291.622 51.200,292.000 50.973,292.000 50.600 C 292.000 50.270,291.730 50.000,291.400 50.000 C 291.070 50.000,290.800 49.820,290.800 49.600 C 290.800 49.380,290.620 49.200,290.400 49.200 C 290.180 49.200,290.000 49.650,290.000 50.200 M293.600 52.600 C 293.600 52.930,293.870 53.200,294.200 53.200 C 294.530 53.200,294.800 52.930,294.800 52.600 C 294.800 52.270,294.530 52.000,294.200 52.000 C 293.870 52.000,293.600 52.270,293.600 52.600 M296.000 53.600 C 296.000 53.820,296.180 54.000,296.400 54.000 C 296.620 54.000,296.800 54.270,296.800 54.600 C 296.800 54.930,297.070 55.200,297.400 55.200 C 297.730 55.200,298.000 54.930,298.000 54.600 C 298.000 54.270,297.730 54.000,297.400 54.000 C 297.070 54.000,296.800 53.820,296.800 53.600 C 296.800 53.380,296.620 53.200,296.400 53.200 C 296.180 53.200,296.000 53.380,296.000 53.600 M299.600 56.571 C 299.600 56.942,299.942 57.200,300.433 57.200 C 301.408 57.200,301.270 56.265,300.267 56.071 C 299.872 55.994,299.600 56.198,299.600 56.571 M301.867 58.267 C 301.293 58.840,301.653 59.200,302.800 59.200 C 303.813 59.200,304.000 59.356,304.000 60.200 C 304.000 61.000,304.200 61.200,305.000 61.200 C 305.622 61.200,306.000 60.973,306.000 60.600 C 306.000 60.270,305.839 60.000,305.642 60.000 C 305.445 60.000,304.860 59.553,304.342 59.007 C 303.422 58.037,302.402 57.732,301.867 58.267 M309.390 63.616 C 309.260 63.827,309.343 64.000,309.576 64.000 C 309.809 64.000,310.000 64.270,310.000 64.600 C 310.000 64.930,310.270 65.200,310.600 65.200 C 311.423 65.200,311.352 64.708,310.414 63.905 C 309.961 63.517,309.527 63.395,309.390 63.616 M312.000 66.567 C 312.000 66.915,312.285 67.200,312.633 67.200 C 313.340 67.200,313.217 66.339,312.475 66.092 C 312.214 66.005,312.000 66.218,312.000 66.567 M314.000 68.600 C 314.000 68.930,314.270 69.200,314.600 69.200 C 314.930 69.200,315.200 68.930,315.200 68.600 C 315.200 68.270,314.930 68.000,314.600 68.000 C 314.270 68.000,314.000 68.270,314.000 68.600 M316.000 70.600 C 316.000 70.930,316.270 71.200,316.600 71.200 C 316.930 71.200,317.200 70.930,317.200 70.600 C 317.200 70.270,316.930 70.000,316.600 70.000 C 316.270 70.000,316.000 70.270,316.000 70.600 M318.000 72.600 C 318.000 72.930,318.270 73.200,318.600 73.200 C 318.930 73.200,319.200 72.930,319.200 72.600 C 319.200 72.270,318.930 72.000,318.600 72.000 C 318.270 72.000,318.000 72.270,318.000 72.600 M320.000 74.600 C 320.000 74.930,320.270 75.200,320.600 75.200 C 320.930 75.200,321.200 74.930,321.200 74.600 C 321.200 74.270,320.930 74.000,320.600 74.000 C 320.270 74.000,320.000 74.270,320.000 74.600 M322.000 76.600 C 322.000 76.930,322.270 77.200,322.600 77.200 C 322.930 77.200,323.200 76.930,323.200 76.600 C 323.200 76.270,322.930 76.000,322.600 76.000 C 322.270 76.000,322.000 76.270,322.000 76.600 M62.000 81.500 C 61.999 81.665,61.549 82.323,61.000 82.962 C 60.450 83.601,60.000 84.289,60.000 84.489 C 60.000 84.690,59.399 85.427,58.665 86.127 C 57.181 87.542,56.519 89.200,57.437 89.200 C 57.771 89.200,58.000 88.793,58.000 88.200 C 58.000 87.400,58.200 87.200,59.000 87.200 C 59.748 87.200,60.000 86.989,60.000 86.363 C 60.000 85.866,60.320 85.441,60.787 85.319 C 61.219 85.206,61.682 84.773,61.814 84.357 C 61.946 83.941,62.402 83.600,62.827 83.600 C 63.611 83.600,63.797 82.980,63.357 81.833 C 63.115 81.202,62.000 80.929,62.000 81.500 M55.200 90.787 C 55.200 91.323,55.008 91.501,54.600 91.345 C 54.270 91.218,54.000 91.314,54.000 91.557 C 54.000 92.054,54.430 92.117,55.367 91.757 C 56.055 91.493,56.252 90.000,55.600 90.000 C 55.380 90.000,55.200 90.354,55.200 90.787 M52.500 94.262 C 51.256 95.566,50.756 97.200,51.600 97.200 C 51.820 97.200,52.000 96.750,52.000 96.200 C 52.000 95.650,52.193 95.200,52.429 95.200 C 53.096 95.200,54.073 94.060,53.929 93.449 C 53.844 93.084,53.361 93.359,52.500 94.262 M49.200 98.967 C 49.200 99.278,48.975 99.614,48.700 99.712 C 48.425 99.810,48.326 100.027,48.481 100.193 C 48.805 100.541,50.000 99.468,50.000 98.829 C 50.000 98.593,49.820 98.400,49.600 98.400 C 49.380 98.400,49.200 98.655,49.200 98.967 M47.200 102.176 C 47.200 102.713,47.380 103.264,47.600 103.400 C 47.833 103.544,48.000 103.137,48.000 102.424 C 48.000 101.751,47.820 101.200,47.600 101.200 C 47.380 101.200,47.200 101.639,47.200 102.176 M271.800 102.790 C 268.671 103.316,265.836 104.050,265.420 104.442 C 265.211 104.639,264.742 104.800,264.378 104.800 C 260.864 104.800,251.017 112.332,246.620 118.383 C 244.788 120.903,241.200 127.879,241.200 128.918 C 241.200 129.205,241.050 129.611,240.868 129.820 C 240.685 130.029,240.221 131.370,239.836 132.800 C 237.074 143.069,237.152 141.159,237.283 194.800 L 237.400 242.600 246.480 242.496 C 257.095 242.375,268.574 240.846,274.200 238.803 C 274.640 238.643,276.080 238.179,277.400 237.772 C 301.301 230.403,320.831 210.091,327.180 186.000 C 327.441 185.010,327.855 183.570,328.101 182.800 C 329.506 178.398,330.981 164.056,330.631 158.200 C 330.243 151.716,329.244 144.922,328.183 141.546 C 327.862 140.527,327.600 139.421,327.600 139.088 C 327.600 138.212,324.521 130.672,323.090 128.044 C 317.296 117.404,308.082 109.221,297.600 105.407 C 296.303 104.935,294.184 104.306,290.200 103.210 C 288.180 102.655,274.468 102.342,271.800 102.790 M45.200 105.400 C 45.200 106.022,44.973 106.400,44.600 106.400 C 44.270 106.400,44.000 106.580,44.000 106.800 C 44.000 107.452,45.493 107.255,45.757 106.567 C 46.131 105.592,46.045 104.400,45.600 104.400 C 45.380 104.400,45.200 104.850,45.200 105.400 M42.862 108.889 C 42.413 109.599,42.150 110.274,42.278 110.389 C 42.405 110.505,42.590 110.375,42.688 110.100 C 42.786 109.825,43.122 109.600,43.433 109.600 C 43.771 109.600,44.000 109.196,44.000 108.600 C 44.000 107.298,43.845 107.338,42.862 108.889 M41.169 111.500 C 41.153 111.665,41.080 112.103,41.009 112.472 C 40.924 112.913,41.072 113.070,41.439 112.930 C 42.075 112.686,42.213 111.200,41.600 111.200 C 41.380 111.200,41.186 111.335,41.169 111.500 M39.026 115.558 C 38.904 115.755,39.074 116.019,39.402 116.146 C 39.765 116.285,40.000 116.144,40.000 115.787 C 40.000 115.140,39.375 114.993,39.026 115.558 M36.926 119.900 C 36.789 120.285,36.604 120.735,36.515 120.900 C 36.426 121.065,36.723 121.200,37.176 121.200 C 37.788 121.200,38.000 120.943,38.000 120.200 C 38.000 119.054,37.297 118.858,36.926 119.900 M34.945 123.800 C 34.659 124.546,35.035 125.600,35.587 125.600 C 35.814 125.600,36.000 125.060,36.000 124.400 C 36.000 123.144,35.340 122.769,34.945 123.800 M33.043 127.833 C 32.631 128.905,32.772 129.600,33.400 129.600 C 33.800 129.600,34.000 129.200,34.000 128.400 C 34.000 127.118,33.444 126.788,33.043 127.833 M31.043 133.033 C 30.623 134.126,30.777 134.480,31.400 133.857 C 31.730 133.527,32.000 133.064,32.000 132.829 C 32.000 132.173,31.317 132.319,31.043 133.033 M62.663 139.188 C 62.532 139.841,62.059 140.741,61.613 141.188 C 61.166 141.634,60.800 142.262,60.800 142.581 C 60.800 143.410,59.901 145.347,59.355 145.694 C 59.101 145.856,58.768 146.821,58.615 147.840 C 58.413 149.189,58.129 149.746,57.569 149.892 C 57.146 150.003,56.800 150.423,56.800 150.827 C 56.800 152.513,55.903 155.600,55.413 155.600 C 55.082 155.600,54.792 156.400,54.618 157.796 C 54.451 159.130,54.101 160.128,53.726 160.338 C 53.327 160.561,52.920 161.854,52.580 163.978 C 52.249 166.050,51.814 167.448,51.411 167.743 C 50.970 168.065,50.692 169.135,50.522 171.160 C 50.329 173.466,50.127 174.146,49.595 174.285 C 49.001 174.441,47.976 181.383,47.997 185.100 C 47.999 185.375,47.746 185.600,47.436 185.600 C 46.858 185.600,46.801 186.072,46.173 196.071 C 45.997 198.863,45.772 200.002,45.365 200.158 C 44.538 200.476,44.518 228.400,45.345 228.400 C 45.918 228.400,46.117 230.114,46.652 239.668 C 46.881 243.756,47.006 244.361,47.657 244.531 C 48.251 244.686,48.401 245.112,48.403 246.663 C 48.409 250.987,48.881 253.928,49.599 254.116 C 50.148 254.259,50.345 254.956,50.571 257.548 C 50.774 259.874,51.009 260.800,51.396 260.800 C 51.947 260.800,52.169 261.537,52.630 264.900 C 52.786 266.035,53.096 266.800,53.400 266.800 C 53.714 266.800,54.098 267.837,54.400 269.500 C 54.670 270.985,55.145 272.404,55.457 272.653 C 55.768 272.902,56.214 274.190,56.448 275.515 C 56.754 277.253,57.069 277.977,57.578 278.110 C 58.083 278.242,58.359 278.865,58.549 280.303 C 58.746 281.781,59.011 282.362,59.555 282.504 C 60.085 282.643,60.374 283.234,60.578 284.594 C 60.784 285.967,61.070 286.546,61.613 286.688 C 62.145 286.827,62.440 287.396,62.627 288.642 C 62.772 289.609,63.050 290.400,63.245 290.400 C 63.450 290.400,63.600 258.226,63.600 214.200 C 63.600 144.900,63.478 135.112,62.663 139.188 M28.933 139.000 C 28.933 139.330,29.173 139.600,29.467 139.600 C 29.760 139.600,30.000 139.330,30.000 139.000 C 30.000 138.670,29.760 138.400,29.467 138.400 C 29.173 138.400,28.933 138.670,28.933 139.000 M27.362 143.938 C 27.519 144.192,27.457 144.400,27.224 144.400 C 26.991 144.400,26.800 144.664,26.800 144.987 C 26.800 145.345,27.035 145.485,27.400 145.345 C 28.112 145.072,28.191 144.165,27.538 143.762 C 27.252 143.585,27.185 143.652,27.362 143.938 M25.200 151.000 C 25.200 151.330,25.380 151.600,25.600 151.600 C 25.820 151.600,26.000 151.330,26.000 151.000 C 26.000 150.670,25.820 150.400,25.600 150.400 C 25.380 150.400,25.200 150.670,25.200 151.000 M369.044 196.500 C 368.714 197.759,367.862 200.310,367.407 201.400 C 367.132 202.060,366.402 203.860,365.785 205.400 C 355.793 230.361,334.176 251.892,308.400 262.558 C 307.410 262.967,306.060 263.532,305.400 263.812 C 304.355 264.257,300.272 265.751,297.200 266.813 C 295.245 267.489,285.922 269.990,283.800 270.407 C 282.920 270.580,280.670 271.024,278.800 271.392 C 270.546 273.018,259.685 274.052,247.800 274.344 L 237.400 274.600 237.298 320.900 L 237.197 367.200 238.998 367.200 C 239.989 367.200,240.800 367.020,240.800 366.800 C 240.800 366.580,241.616 366.400,242.613 366.400 C 243.855 366.400,244.498 366.211,244.655 365.800 C 244.796 365.433,245.403 365.200,246.219 365.200 C 246.953 365.200,247.664 365.020,247.800 364.800 C 247.936 364.580,248.654 364.400,249.395 364.400 C 250.136 364.400,251.013 364.130,251.343 363.800 C 251.673 363.470,252.485 363.200,253.148 363.200 C 253.811 363.200,254.464 363.020,254.600 362.800 C 254.736 362.580,255.287 362.400,255.824 362.400 C 256.425 362.400,256.800 362.169,256.800 361.800 C 256.800 361.383,257.220 361.200,258.176 361.200 C 258.933 361.200,259.664 361.020,259.800 360.800 C 259.936 360.580,260.402 360.400,260.836 360.400 C 261.270 360.400,261.729 360.130,261.855 359.800 C 261.982 359.470,262.516 359.200,263.043 359.200 C 263.569 359.200,264.000 359.020,264.000 358.800 C 264.000 358.580,264.437 358.400,264.971 358.400 C 265.506 358.400,266.213 358.130,266.543 357.800 C 266.873 357.470,267.516 357.200,267.971 357.200 C 268.427 357.200,268.800 357.020,268.800 356.800 C 268.800 356.580,269.166 356.400,269.613 356.400 C 270.059 356.400,270.529 356.130,270.655 355.800 C 270.782 355.470,271.316 355.200,271.843 355.200 C 272.369 355.200,272.800 355.020,272.800 354.800 C 272.800 354.580,273.166 354.400,273.613 354.400 C 274.059 354.400,274.529 354.130,274.655 353.800 C 274.782 353.470,275.316 353.200,275.843 353.200 C 276.369 353.200,276.800 353.020,276.800 352.800 C 276.800 352.580,277.166 352.400,277.613 352.400 C 278.059 352.400,278.529 352.130,278.655 351.800 C 278.782 351.470,279.316 351.200,279.843 351.200 C 280.369 351.200,280.800 351.023,280.800 350.808 C 280.800 350.592,281.250 350.302,281.800 350.164 C 282.350 350.026,282.800 349.753,282.800 349.557 C 282.800 349.360,283.070 349.200,283.400 349.200 C 283.730 349.200,284.000 349.023,284.000 348.808 C 284.000 348.592,284.450 348.302,285.000 348.164 C 285.550 348.026,286.000 347.753,286.000 347.557 C 286.000 347.360,286.335 347.200,286.744 347.200 C 287.153 347.200,287.826 346.750,288.239 346.200 C 288.653 345.649,289.396 345.200,289.895 345.200 C 290.433 345.200,290.800 344.957,290.800 344.600 C 290.800 344.270,291.070 344.000,291.400 344.000 C 291.730 344.000,292.000 343.820,292.000 343.600 C 292.000 343.380,292.450 343.200,293.000 343.200 C 293.550 343.200,294.000 343.007,294.000 342.771 C 294.000 342.066,295.086 341.200,295.971 341.200 C 296.441 341.200,296.800 340.940,296.800 340.600 C 296.800 340.270,297.070 340.000,297.400 340.000 C 297.730 340.000,298.000 339.820,298.000 339.600 C 298.000 339.380,298.315 339.197,298.700 339.193 C 299.085 339.189,299.824 338.739,300.342 338.193 C 300.860 337.647,301.445 337.200,301.642 337.200 C 301.839 337.200,302.000 336.930,302.000 336.600 C 302.000 336.254,302.361 336.000,302.853 336.000 C 303.322 336.000,304.300 335.370,305.026 334.600 C 305.752 333.830,306.538 333.200,306.773 333.200 C 307.008 333.200,307.200 333.007,307.200 332.771 C 307.200 332.177,308.233 331.201,308.871 331.193 C 309.162 331.189,309.824 330.739,310.342 330.193 C 310.860 329.647,311.445 329.200,311.642 329.200 C 311.839 329.200,312.000 328.930,312.000 328.600 C 312.000 328.270,312.193 328.000,312.429 328.000 C 312.982 328.000,314.000 326.982,314.000 326.429 C 314.000 326.193,314.193 326.000,314.429 326.000 C 314.982 326.000,316.000 324.982,316.000 324.429 C 316.000 324.193,316.193 324.000,316.429 324.000 C 316.982 324.000,318.000 322.982,318.000 322.429 C 318.000 322.193,318.193 322.000,318.429 322.000 C 318.982 322.000,320.000 320.982,320.000 320.429 C 320.000 320.193,320.193 320.000,320.429 320.000 C 320.982 320.000,322.000 318.982,322.000 318.429 C 322.000 318.193,322.193 318.000,322.429 318.000 C 322.982 318.000,324.000 316.982,324.000 316.429 C 324.000 316.193,324.193 316.000,324.429 316.000 C 324.982 316.000,326.000 314.982,326.000 314.429 C 326.000 314.193,326.193 314.000,326.429 314.000 C 326.889 314.000,328.000 313.017,328.000 312.609 C 328.000 312.473,328.450 311.945,329.000 311.435 C 329.550 310.925,330.000 310.214,330.000 309.854 C 330.000 309.494,330.270 309.200,330.600 309.200 C 330.930 309.200,331.200 308.996,331.200 308.746 C 331.200 308.496,331.650 307.875,332.200 307.365 C 332.750 306.855,333.200 306.160,333.200 305.819 C 333.200 305.479,333.380 305.200,333.600 305.200 C 333.820 305.200,334.000 304.930,334.000 304.600 C 334.000 304.270,334.249 304.000,334.554 304.000 C 334.859 304.000,335.408 303.370,335.773 302.600 C 336.139 301.830,336.609 301.200,336.819 301.200 C 337.028 301.200,337.200 300.930,337.200 300.600 C 337.200 300.270,337.380 300.000,337.600 300.000 C 337.820 300.000,338.000 299.730,338.000 299.400 C 338.000 299.070,338.270 298.800,338.600 298.800 C 338.940 298.800,339.200 298.441,339.200 297.971 C 339.200 297.086,340.066 296.000,340.771 296.000 C 341.007 296.000,341.200 295.550,341.200 295.000 C 341.200 294.450,341.380 294.000,341.600 294.000 C 341.820 294.000,342.000 293.730,342.000 293.400 C 342.000 293.070,342.270 292.800,342.600 292.800 C 342.940 292.800,343.200 292.441,343.200 291.971 C 343.200 291.086,344.066 290.000,344.771 290.000 C 345.007 290.000,345.200 289.550,345.200 289.000 C 345.200 288.450,345.359 288.000,345.553 288.000 C 345.748 288.000,346.012 287.685,346.142 287.300 C 346.397 286.540,347.251 285.121,347.646 284.800 C 347.781 284.690,348.019 284.195,348.173 283.700 C 348.328 283.205,348.622 282.800,348.827 282.800 C 349.032 282.800,349.200 282.369,349.200 281.843 C 349.200 281.316,349.470 280.782,349.800 280.655 C 350.130 280.529,350.400 280.059,350.400 279.613 C 350.400 279.166,350.580 278.800,350.800 278.800 C 351.020 278.800,351.200 278.350,351.200 277.800 C 351.200 277.178,351.427 276.800,351.800 276.800 C 352.173 276.800,352.400 276.422,352.400 275.800 C 352.400 275.250,352.580 274.800,352.800 274.800 C 353.020 274.800,353.200 274.350,353.200 273.800 C 353.200 273.178,353.427 272.800,353.800 272.800 C 354.173 272.800,354.400 272.422,354.400 271.800 C 354.400 271.250,354.580 270.800,354.800 270.800 C 355.020 270.800,355.200 270.369,355.200 269.843 C 355.200 269.316,355.470 268.782,355.800 268.655 C 356.130 268.529,356.400 268.059,356.400 267.613 C 356.400 267.166,356.580 266.800,356.800 266.800 C 357.020 266.800,357.200 266.189,357.200 265.443 C 357.200 264.605,357.430 263.997,357.800 263.855 C 358.130 263.729,358.400 263.169,358.400 262.613 C 358.400 262.056,358.580 261.600,358.800 261.600 C 359.020 261.600,359.200 260.989,359.200 260.243 C 359.200 259.405,359.430 258.797,359.800 258.655 C 360.147 258.522,360.400 257.924,360.400 257.236 C 360.400 256.582,360.580 255.936,360.800 255.800 C 361.020 255.664,361.200 254.933,361.200 254.176 C 361.200 253.220,361.383 252.800,361.800 252.800 C 362.233 252.800,362.400 252.356,362.400 251.200 C 362.400 250.320,362.580 249.600,362.800 249.600 C 363.020 249.600,363.200 248.989,363.200 248.243 C 363.200 247.405,363.430 246.797,363.800 246.655 C 364.211 246.498,364.400 245.855,364.400 244.613 C 364.400 243.616,364.580 242.800,364.800 242.800 C 365.020 242.800,365.200 241.984,365.200 240.987 C 365.200 239.745,365.389 239.102,365.800 238.945 C 366.220 238.783,366.400 238.128,366.400 236.757 C 366.400 235.681,366.580 234.800,366.800 234.800 C 367.026 234.800,367.200 233.667,367.200 232.200 C 367.200 230.156,367.328 229.600,367.800 229.600 C 368.280 229.600,368.400 229.000,368.400 226.600 C 368.400 224.867,368.569 223.600,368.800 223.600 C 369.037 223.600,369.200 222.133,369.200 220.000 C 369.200 217.867,369.363 216.400,369.600 216.400 C 369.856 216.400,370.000 212.733,370.000 206.200 C 370.000 197.111,369.695 194.015,369.044 196.500 M98.492 336.098 C 98.580 336.374,99.045 336.778,99.526 336.995 C 100.007 337.212,100.400 337.621,100.400 337.903 C 100.400 338.186,100.835 338.615,101.366 338.857 C 101.897 339.099,102.421 339.636,102.529 340.049 C 102.643 340.486,103.080 340.800,103.572 340.800 C 104.108 340.800,104.560 341.168,104.800 341.800 C 105.033 342.412,105.494 342.800,105.990 342.800 C 106.524 342.800,106.800 343.064,106.800 343.572 C 106.800 344.068,107.122 344.390,107.700 344.472 C 108.195 344.542,108.770 344.988,108.978 345.462 C 109.187 345.936,110.026 346.545,110.846 346.815 C 111.689 347.093,112.419 347.630,112.530 348.053 C 112.645 348.495,113.082 348.800,113.600 348.800 C 114.106 348.800,114.554 349.104,114.663 349.520 C 114.777 349.955,115.540 350.444,116.588 350.753 C 117.691 351.079,118.397 351.546,118.525 352.033 C 118.657 352.540,119.076 352.800,119.763 352.800 C 120.491 352.800,120.800 353.012,120.800 353.513 C 120.800 354.012,121.339 354.385,122.600 354.757 C 123.911 355.144,124.400 355.494,124.400 356.044 C 124.400 356.614,124.690 356.800,125.576 356.800 C 126.897 356.800,127.517 357.443,126.845 358.115 C 126.005 358.955,126.403 359.200,128.608 359.200 C 130.763 359.200,130.809 359.224,130.564 360.200 C 130.318 361.179,130.361 361.200,132.599 361.200 C 134.467 361.200,134.843 361.310,134.655 361.800 C 134.515 362.165,134.655 362.400,135.013 362.400 C 135.336 362.400,135.600 362.580,135.600 362.800 C 135.600 363.020,136.153 363.200,136.829 363.200 C 137.504 363.200,138.327 363.470,138.657 363.800 C 138.987 364.130,139.784 364.400,140.429 364.400 C 141.073 364.400,141.600 364.580,141.600 364.800 C 141.600 365.020,142.500 365.200,143.600 365.200 C 145.111 365.200,145.600 365.347,145.600 365.800 C 145.600 366.253,146.089 366.400,147.600 366.400 C 148.700 366.400,149.600 366.580,149.600 366.800 C 149.600 367.020,150.243 367.200,151.029 367.200 C 151.814 367.200,152.727 367.470,153.057 367.800 C 153.428 368.171,154.410 368.400,155.629 368.400 C 156.713 368.400,157.600 368.580,157.600 368.800 C 157.600 369.021,158.652 369.200,159.957 369.200 C 161.684 369.200,162.376 369.361,162.545 369.800 C 162.716 370.248,163.432 370.400,165.364 370.400 C 166.788 370.400,168.064 370.580,168.200 370.800 C 168.342 371.029,170.404 371.200,173.024 371.200 C 175.808 371.200,177.600 371.357,177.600 371.600 C 177.600 371.853,180.468 372.000,185.404 372.000 L 193.208 372.000 193.104 353.900 L 193.000 335.800 145.666 335.698 C 107.861 335.617,98.364 335.698,98.492 336.098 " stroke="none" fill="#054383" fill-rule="evenodd"></path></g></svg>