<?xml version="1.0" encoding="UTF-8"?><svg xmlns="http://www.w3.org/2000/svg" viewBox="0 0 2000 2000"><defs><style>.cls-1{fill:#ff1f08;}.cls-2,.cls-3{fill:#fff;}.cls-4{fill:#004186;}.cls-3{stroke:#fff;stroke-miterlimit:10;stroke-width:1.5px;}</style></defs><g id="Capa_2"><path class="cls-1" d="M1100,150c236.8835,0,453.5098,86.709,619.8916,230.1085C1545.6774,177.9733,1287.7869,50,1000,50,475.3295,50,50,475.3295,50,1000c0,287.787,127.9734,545.6775,330.1087,719.8916-143.3995-166.3818-230.1087-383.0079-230.1087-619.8916,0-524.6705,425.3295-950,950-950Z"/><path class="cls-2" d="M200,1150c0-524.6705,425.3295-950,950-950,224.1221,0,430.1074,77.6221,592.5662,207.4338-7.3916-9.2504-14.9492-18.3619-22.6746-27.3254-166.3818-143.3994-383.0081-230.1085-619.8916-230.1085-524.6705,0-950,425.3295-950,950,0,236.8837,86.7092,453.5098,230.1087,619.8916,8.9634,7.7253,18.0748,15.2831,27.3251,22.6746-129.8118-162.4587-207.4338-368.4442-207.4338-592.5662Z"/><path class="cls-4" d="M200,1150c0,224.1219,77.6221,430.1074,207.4338,592.5662,162.4587,129.8118,368.4442,207.4338,592.5662,207.4338,524.6705,0,950-425.3296,950-950,0-224.122-77.6221-430.1075-207.4338-592.5662-162.4587-129.8118-368.4441-207.4338-592.5662-207.4338-524.6705,0-950,425.3295-950,950Z"/></g><g id="Capa_3"><g id="L"><path class="cls-3" d="M344.182,423.9443v1066.6877c0,35.4867,5.2057,63.4996,15.643,84.0134,10.4372,20.5394,25.5648,36.0278,45.4084,46.4651,19.8437,10.4373,44.0168,17.0345,72.5453,19.8179,28.5284,2.7833,61.2318,4.1749,98.1101,4.1749h296.4179c28.5284,0,56.7219-1.3916,84.5546-4.1749,27.8327-2.7833,52.7017-9.3806,74.6071-19.8179,21.9053-10.4373,39.4811-25.9257,52.7008-46.4651,13.2205-20.5138,19.8436-48.5267,19.8436-84.0134,0-34.7909-6.6232-62.2627-19.8436-82.4414-13.2197-20.1786-30.7955-35.4867-52.7008-45.924-21.9054-10.4373-46.7744-17.0603-74.6071-19.8435-27.8326-2.7833-56.0261-4.175-84.5546-4.175h-204.5701V423.9443c0-29.9201-1.237-59.1444-3.6594-87.6729-2.4225-28.5285-8.8652-54.0933-19.3025-76.7202-10.4373-22.6011-26.7761-40.8728-49.0422-54.7891-20.2883-12.6801-47.8331-19.5635-82.5653-20.6899-57.415,34.3312-110.9093,74.5402-159.6371,119.8137-2.3442,10.3371-4.0749,21.1268-5.1733,32.3855-2.7833,28.5285-4.1749,57.7528-4.1749,87.6729Z"/></g><g id="P"><path class="cls-3" d="M1208.1592,1891.9951c10.1021-22.2661,16.0037-47.6506,17.7561-76.1791,1.7267-28.5284,2.6029-57.7528,2.6029-87.6729v-338.1669h133.5968c80.0188,0,151.8684-9.561,215.5227-28.709,63.6543-19.1221,117.593-47.6505,161.7903-85.5854,44.1714-37.9091,77.9314-84.8645,101.2285-140.8906,23.2969-56.0261,34.9712-121.2526,34.9712-195.705,0-54.2737-6.6232-102.1047-19.8438-143.5186-13.2205-41.3882-30.7963-77.2357-52.7017-107.4908-21.9053-30.2551-46.6196-55.8457-74.0916-76.7202-27.4976-20.8745-55.8457-38.27-85.0701-52.1863-68.1899-32.0076-145.4257-50.0988-231.7069-54.2737h-344.4292c-38.9657,0-69.0663,6.8035-90.2758,20.3591-21.2353,13.5555-36.6979,31.4664-46.4393,53.7325-9.7415,22.2661-15.4883,47.6763-17.2408,76.2048s-2.6029,57.7528-2.6029,87.6729v985.2772c0,29.92.8505,59.1444,2.6029,87.6729,1.7524,28.5284,7.4993,53.913,17.2408,76.1791s25.204,40.2026,46.4393,53.7583c2.2699,1.4535,4.663,2.8127,7.1366,4.1104,5.1097.0811,10.2256.1362,15.3546.1362,60.5699,0,119.8115-5.6808,177.2321-16.5161,13.3032-11.5557,23.62-25.3834,30.9271-41.4888ZM1228.5182,751.2158h152.3839c32.7034,2.7833,62.2883,10.798,88.7295,23.9928,11.1331,6.2881,21.9053,13.9421,32.3425,22.9877,10.4373,9.0456,19.8436,19.9982,28.1934,32.858,8.3499,12.8855,15.1277,28.1935,20.3334,45.9239,5.2057,17.7562,7.8344,38.4503,7.8344,62.1081,0,25.0494-2.6287,47.3156-7.8344,66.7984-5.2057,19.4828-12.3444,36.3629-21.3899,50.6142-9.0457,14.2772-19.1221,26.2606-30.2551,36.0021-11.1331,9.7415-22.627,17.7562-34.4558,24.0186-27.8326,14.6122-59.1444,22.9619-93.9352,25.0494h-141.9467v-390.3531Z"/></g></g></svg>